<svg xmlns="http://www.w3.org/2000/svg" width="129" height="29" viewBox="0 0 129 29">
  <g id="Group_214" data-name="Group 214" transform="translate(-32 -25)">
    <text id="Freefund" transform="translate(75 47)" fill="#3276d2" font-size="20" font-family="Helvetica-Bold, Helvetica" font-weight="700"><tspan x="0" y="0">Free</tspan><tspan y="0" fill="#3ad3c1">fund</tspan></text>
    <g id="Group_1" data-name="Group 1" transform="translate(-836 -478)">
      <path id="Rectangle_2" data-name="Rectangle 2" d="M7,0H20a0,0,0,0,1,0,0V21a0,0,0,0,1,0,0H0a0,0,0,0,1,0,0V7A7,7,0,0,1,7,0Z" transform="translate(877 511)" fill="#3ad3c1"/>
      <path id="Rectangle_1" data-name="Rectangle 1" d="M7,0H20a0,0,0,0,1,0,0V20a0,0,0,0,1,0,0H0a0,0,0,0,1,0,0V7A7,7,0,0,1,7,0Z" transform="translate(868 503)" fill="#3164d6" opacity="0.833"/>
    </g>
  </g>
</svg>
